<mxfile host="app.diagrams.net" modified="2022-08-02T02:23:07.506Z" agent="5.0 (Macintosh; Intel Mac OS X 10_15_7) AppleWebKit/537.36 (KHTML, like Gecko) Chrome/103.0.0.0 Safari/537.36" etag="z80DyrBQuR37ALifFhlO" version="20.2.0" type="github">
  <diagram id="H8Bzomo43D_-8PIfljdf" name="Page-1">
    <mxGraphModel dx="1298" dy="777" grid="1" gridSize="10" guides="1" tooltips="1" connect="1" arrows="1" fold="1" page="1" pageScale="1" pageWidth="827" pageHeight="1169" math="0" shadow="0">
      <root>
        <mxCell id="0" />
        <mxCell id="1" parent="0" />
        <mxCell id="ZMFKEwNz82a_taP1TG6o-1" value="" style="whiteSpace=wrap;html=1;aspect=fixed;" vertex="1" parent="1">
          <mxGeometry x="260" y="160" width="390" height="390" as="geometry" />
        </mxCell>
        <mxCell id="ZMFKEwNz82a_taP1TG6o-2" value="sql gateway&amp;nbsp;&lt;br&gt;svc" style="whiteSpace=wrap;html=1;aspect=fixed;" vertex="1" parent="1">
          <mxGeometry x="344" y="230" width="70" height="70" as="geometry" />
        </mxCell>
        <mxCell id="ZMFKEwNz82a_taP1TG6o-4" value="virtual cluster crd" style="text;html=1;strokeColor=none;fillColor=none;align=center;verticalAlign=middle;whiteSpace=wrap;rounded=0;" vertex="1" parent="1">
          <mxGeometry x="270" y="170" width="110" height="30" as="geometry" />
        </mxCell>
        <mxCell id="ZMFKEwNz82a_taP1TG6o-5" value="engine operator" style="whiteSpace=wrap;html=1;aspect=fixed;" vertex="1" parent="1">
          <mxGeometry x="470" y="230" width="70" height="70" as="geometry" />
        </mxCell>
        <mxCell id="ZMFKEwNz82a_taP1TG6o-6" value="sub-cluster" style="whiteSpace=wrap;html=1;aspect=fixed;" vertex="1" parent="1">
          <mxGeometry x="300" y="400" width="70" height="70" as="geometry" />
        </mxCell>
        <mxCell id="ZMFKEwNz82a_taP1TG6o-7" value="sub-cluster2" style="whiteSpace=wrap;html=1;aspect=fixed;" vertex="1" parent="1">
          <mxGeometry x="414" y="400" width="70" height="70" as="geometry" />
        </mxCell>
        <mxCell id="ZMFKEwNz82a_taP1TG6o-8" value="sub-clustern" style="whiteSpace=wrap;html=1;aspect=fixed;" vertex="1" parent="1">
          <mxGeometry x="520" y="400" width="70" height="70" as="geometry" />
        </mxCell>
      </root>
    </mxGraphModel>
  </diagram>
</mxfile>
